<?xml version="1.0" encoding="utf-8"?>
<!-- Generator: Adobe Illustrator 23.0.3, SVG Export Plug-In . SVG Version: 6.00 Build 0)  -->
<svg version="1.1" id="Layer_1" xmlns="http://www.w3.org/2000/svg" xmlns:xlink="http://www.w3.org/1999/xlink" x="0px" y="0px"
	 viewBox="0 0 518.4 53.3" style="enable-background:new 0 0 518.4 53.3;" xml:space="preserve">
<style type="text/css">
	.st0{fill:#FFFFFF;}
	.st1{fill:#00FACE;}
</style>
<title>_0Asset 1</title>
<g>
	<g id="Layer_1-2">
		<path class="st0" d="M118.6,16.2h18.8V19h-15.8v6.5h13.5v2.8h-13.5v6.9h16V38h-19.1V16.2z"/>
		<path class="st0" d="M157.4,37l0.3-2.9c3,1.1,6.1,1.6,9.3,1.5c5.2,0,6.8-1,6.8-3.8c0-2.2-1-2.9-5.2-3.2l-3.3-0.3
			c-5.7-0.5-7.5-2-7.5-5.9c0-4.8,2.6-6.6,9.7-6.6c2.8-0.1,5.6,0.3,8.2,1.2l-0.3,2.9c-2.7-0.9-5.5-1.3-8.3-1.3
			c-4.8,0-6.3,0.9-6.3,3.5c0,2,0.9,2.7,5.2,3.1l3.3,0.3c5.7,0.5,7.5,2,7.5,6.1c0,4.9-2.6,6.6-10,6.6C163.5,38.4,160.4,38,157.4,37z"
			/>
		<path class="st0" d="M197.3,16.2H210c5.5,0,7.6,1.9,7.6,6.8s-2.1,6.7-7.6,6.7h-9.6V38h-3.1L197.3,16.2z M209.6,27.1
			c3.7,0,4.9-1,4.9-4s-1.3-4-4.9-4h-9.2v8.1L209.6,27.1z"/>
		<path class="st0" d="M237.4,27.1c0-8.3,3-11.2,11.6-11.2s11.6,2.9,11.6,11.2s-3,11.2-11.6,11.2S237.4,35.4,237.4,27.1z
			 M257.5,27.1c0-6.5-1.9-8.5-8.5-8.5s-8.5,2-8.5,8.5s1.9,8.5,8.5,8.5S257.5,33.6,257.5,27.1z"/>
		<path class="st0" d="M281.8,16.2h12.7c5.4,0,7.5,1.9,7.5,6.6c0,4.3-1.7,6.2-6.2,6.5l7,8.5h-4l-7-8.5h-7.1V38h-3L281.8,16.2z
			 M294.2,26.7c3.6,0,4.8-1,4.8-3.8s-1.3-3.9-4.8-3.9h-9.3v7.7L294.2,26.7z"/>
		<path class="st0" d="M329.3,19.1h-8.6v-2.8h20.2v2.8h-8.6V38h-3L329.3,19.1z"/>
		<path class="st0" d="M359.6,37l0.2-2.9c3,1.1,6.1,1.6,9.3,1.5c5.2,0,6.8-1,6.8-3.8c0-2.2-1-2.9-5.2-3.2l-3.3-0.3
			c-5.7-0.5-7.5-2-7.5-5.9c0-4.8,2.6-6.6,9.7-6.6c2.8-0.1,5.6,0.3,8.2,1.2l-0.3,2.9c-2.7-0.9-5.5-1.3-8.4-1.3
			c-4.8,0-6.3,0.9-6.3,3.5c0,2,0.9,2.7,5.2,3.1l3.3,0.3c5.7,0.5,7.5,2,7.5,6.1c0,4.9-2.6,6.6-10,6.6C365.7,38.4,362.6,38,359.6,37z"
			/>
		<path class="st1" d="M410.7,27.1c0-8.3,3.1-11.2,12-11.2s12,2.9,12,11.2s-3.1,11.2-12,11.2S410.7,35.4,410.7,27.1z M427.9,27.1
			c0-4.6-1.1-5.8-5.2-5.8s-5.2,1.2-5.2,5.8s1.1,5.8,5.2,5.8S427.9,31.7,427.9,27.1z"/>
		<path class="st1" d="M455.1,16.2h7.5l8.2,12v-12h6.2V38h-6.2l-9.4-13.8V38h-6.2V16.2z"/>
		<path class="st1" d="M498.2,16.2h19.9v5.4h-13.4v2.7h11.1v5.2h-11.1v3h13.6V38h-20.2V16.2z"/>
		<path class="st0" d="M56.7,16L60,0H15.2c-2.8,0-5.5,1.9-6,4.3L9,5.3l0,0l-6.6,32l0,0L0.1,49c-0.5,2.4,1.4,4.3,4.1,4.3H49l3.3-16
			H21.2l0.5-2.7h31.1l3.3-16H25l0.5-2.6H56.7z"/>
		<polygon class="st1" points="68.7,0 62.5,0 59.2,16 65.4,16 57.7,53.3 76.4,53.3 87.4,0 		"/>
	</g>
</g>
</svg>
